<?xml version="1.0" standalone="no"?>
<!DOCTYPE svg PUBLIC "-//W3C//DTD SVG 20010904//EN"
 "http://www.w3.org/TR/2001/REC-SVG-20010904/DTD/svg10.dtd">
<svg version="1.0" xmlns="http://www.w3.org/2000/svg"
 width="280.000000pt" height="219.000000pt" viewBox="0 0 280.000000 219.000000"
 preserveAspectRatio="xMidYMid meet">

<g transform="translate(0.000000,219.000000) scale(0.100000,-0.100000)"
fill="#000000" stroke="none">
<path d="M1226 2004 c-70 -17 -159 -63 -204 -105 -34 -32 -34 -32 -89 -19 -98
22 -236 -8 -335 -71 -61 -39 -111 -98 -146 -169 -24 -50 -34 -59 -86 -84 -84
-40 -146 -102 -192 -193 l-39 -76 0 -126 c0 -120 1 -129 31 -191 73 -154 193
-232 381 -247 80 -6 84 -7 130 -49 25 -24 76 -58 112 -76 61 -30 75 -33 182
-36 65 -2 139 1 165 6 47 10 50 9 107 -29 84 -56 199 -90 322 -94 55 -2 101
-8 103 -13 25 -75 181 -260 250 -296 38 -20 76 -13 97 17 29 42 19 67 -54 137
-75 71 -125 133 -140 172 -8 22 -6 27 23 40 17 9 46 28 64 43 60 51 36 135
-40 135 -15 0 -30 -5 -34 -11 -13 -22 -126 -67 -182 -74 -84 -9 -244 17 -285
48 -16 11 -13 16 30 48 72 53 139 91 222 124 52 21 80 38 90 56 20 36 7 75
-30 94 -28 15 -35 15 -82 -1 -76 -25 -161 -69 -262 -137 -118 -79 -175 -104
-265 -117 -193 -28 -326 50 -390 228 -33 91 -71 112 -125 70 -26 -20 -27 -25
-22 -80 l5 -59 -31 6 c-86 18 -165 72 -197 135 -36 70 -44 125 -31 200 24 132
122 226 248 236 84 7 101 12 123 34 31 31 26 74 -12 103 -31 25 -31 26 -14 52
57 87 229 130 326 81 55 -27 78 -21 132 35 30 31 74 63 116 82 60 28 77 32
157 32 90 0 185 -24 185 -46 0 -5 -9 -27 -20 -49 -11 -22 -27 -65 -35 -96 -8
-31 -16 -58 -17 -59 -13 -11 -69 -34 -95 -40 -62 -13 -83 -82 -38 -125 25 -23
38 -24 140 -4 27 5 32 1 50 -33 16 -31 26 -39 53 -41 19 -2 44 4 59 13 22 15
24 22 20 58 -2 23 -12 62 -22 87 -43 113 32 247 159 285 75 23 116 19 187 -17
80 -41 115 -89 133 -188 16 -83 28 -95 105 -104 224 -26 357 -253 267 -453
-48 -106 -142 -174 -259 -189 -99 -12 -117 -43 -117 -204 0 -193 55 -413 107
-426 35 -9 71 3 89 31 15 23 14 31 -11 127 -21 79 -28 128 -29 212 l-1 110 75
26 c87 29 153 72 204 132 90 105 121 196 114 337 -4 84 -10 106 -41 174 -58
126 -196 239 -319 261 -34 6 -38 10 -52 59 -31 106 -133 212 -246 253 -67 24
-182 22 -266 -5 l-71 -22 -60 30 c-111 57 -257 74 -377 45z"/>
<path d="M872 1400 c-28 -12 -46 -51 -38 -84 4 -15 29 -42 61 -66 62 -46 96
-87 125 -152 25 -58 63 -77 108 -54 32 16 42 34 42 72 0 23 2 24 53 18 50 -6
55 -5 75 21 27 34 28 65 3 96 -18 22 -28 24 -122 27 -102 4 -102 4 -138 39
-40 40 -119 93 -135 92 -6 0 -21 -4 -34 -9z"/>
<path d="M1918 1343 c-25 -29 -30 -60 -14 -90 35 -68 128 -127 218 -139 35 -5
48 -2 71 16 54 42 20 130 -50 130 -33 0 -72 22 -112 64 -39 41 -87 48 -113 19z"/>
</g>
</svg>
