<?xml version="1.0" standalone="no"?>
<!DOCTYPE svg PUBLIC "-//W3C//DTD SVG 20010904//EN"
 "http://www.w3.org/TR/2001/REC-SVG-20010904/DTD/svg10.dtd">
<svg version="1.0" xmlns="http://www.w3.org/2000/svg"
 width="256.000000pt" height="50.000000pt" viewBox="0 0 256.000000 50.000000"
 preserveAspectRatio="xMidYMid meet">

<g transform="translate(0.000000,50.000000) scale(0.100000,-0.100000)"
fill="#000000" stroke="none">
<path d="M284 426 c-11 -8 -27 -14 -35 -14 -43 3 -63 -6 -107 -49 -56 -55 -72
-81 -72 -117 0 -38 43 -82 94 -95 25 -6 48 -15 51 -21 3 -5 27 -10 53 -10 26
-1 58 -7 72 -15 14 -8 36 -14 50 -15 16 0 35 -12 53 -35 28 -35 57 -46 57 -22
0 8 -11 24 -25 37 -23 22 -24 25 -8 42 22 25 11 32 -29 19 -20 -6 -45 -7 -63
-2 l-30 8 35 21 c19 12 38 22 43 22 4 0 7 7 7 15 0 23 -31 18 -73 -11 -69 -47
-137 -42 -157 12 -11 27 -28 32 -36 9 -14 -35 -54 2 -54 50 0 36 28 65 63 65
14 0 18 5 14 20 -7 28 17 44 57 37 26 -4 39 -1 52 14 25 28 91 23 86 -6 -2
-11 -13 -27 -24 -36 -22 -17 -16 -44 7 -35 7 2 17 0 23 -6 17 -17 32 1 26 31
-7 33 16 61 51 61 26 0 55 -24 55 -46 0 -7 16 -20 35 -28 70 -30 73 -107 5
-133 -38 -15 -40 -18 -40 -59 0 -50 15 -94 31 -94 8 0 9 16 4 55 -6 52 -5 55
18 64 69 26 90 120 38 172 -16 16 -36 29 -45 29 -8 0 -17 8 -21 19 -13 41 -39
52 -141 57 -76 4 -104 1 -120 -10z"/>
<path d="M780 235 l0 -105 35 0 c35 0 43 12 26 38 -7 11 -9 11 -14 -2 -4 -9
-11 -16 -17 -16 -6 0 -10 33 -10 85 0 78 2 85 20 85 13 0 30 -20 55 -65 20
-36 40 -67 44 -69 4 -3 25 26 47 64 25 45 45 70 57 70 15 0 17 -11 17 -85 0
-101 -18 -115 -22 -17 l-3 67 -40 -68 c-25 -43 -45 -67 -55 -65 -8 2 -32 32
-52 68 -27 46 -38 58 -38 42 0 -12 14 -47 31 -77 26 -47 35 -55 60 -55 24 0
34 8 52 38 l22 37 3 -37 c3 -36 5 -38 38 -38 l34 0 0 105 0 105 -39 0 c-38 0
-41 -2 -74 -61 l-35 -61 -33 61 c-32 58 -36 61 -71 61 l-38 0 0 -105z"/>
<path d="M1277 322 c-21 -23 -22 -52 -3 -78 12 -15 30 -20 103 -24 74 -4 88
-8 91 -23 7 -36 -16 -47 -99 -47 -101 0 -104 18 -4 22 108 4 99 22 -12 26 -92
3 -93 2 -93 -21 0 -40 18 -47 116 -47 103 0 117 8 112 62 -4 43 -34 58 -119
58 -70 0 -95 13 -83 44 8 22 37 28 114 24 39 -2 65 -8 68 -15 3 -10 -17 -13
-77 -13 -47 0 -81 -4 -81 -10 0 -6 39 -10 96 -10 94 0 95 0 88 23 -13 43 -23
47 -114 47 -71 0 -90 -3 -103 -18z"/>
<path d="M2020 243 c-30 -53 -56 -101 -58 -105 -2 -4 14 -8 37 -8 39 0 41 2
76 65 20 36 40 65 43 65 7 0 62 -93 62 -104 0 -17 -21 -2 -41 31 -28 45 -40
25 -14 -24 16 -29 23 -33 57 -33 22 0 38 4 36 9 -8 23 -94 171 -99 171 -3 0
-24 -34 -48 -75 -23 -41 -47 -77 -52 -81 -26 -16 -17 11 30 91 28 48 51 89 51
91 0 2 -6 4 -12 4 -7 0 -38 -44 -68 -97z"/>
<path d="M2420 235 l0 -105 35 0 c19 0 35 5 35 10 0 6 -9 10 -20 10 -18 0 -20
7 -20 85 0 50 4 85 10 85 6 0 10 -32 10 -75 0 -43 4 -75 10 -75 6 0 10 35 10
85 l0 85 -35 0 -35 0 0 -105z"/>
<path d="M235 301 c-6 -11 44 -81 58 -81 4 0 10 7 13 15 4 8 13 15 21 15 24 0
9 25 -17 28 -13 2 -34 10 -46 18 -15 10 -24 12 -29 5z"/>
<path d="M474 288 c-8 -13 31 -48 52 -48 24 0 15 24 -16 42 -20 12 -32 13 -36
6z"/>
<path d="M1700 185 c-6 -8 -10 -22 -8 -32 5 -25 61 -25 66 0 4 21 -14 47 -33
47 -7 0 -18 -7 -25 -15z m35 -25 c-3 -5 -10 -10 -16 -10 -5 0 -9 5 -9 10 0 6
7 10 16 10 8 0 12 -4 9 -10z"/>
</g>
</svg>
